<?xml version="1.0" encoding="iso-8859-1"?>
<!-- Generator: Adobe Illustrator 19.0.0, SVG Export Plug-In . SVG Version: 6.00 Build 0)  -->
<svg version="1.1" id="Capa_1" xmlns="http://www.w3.org/2000/svg" xmlns:xlink="http://www.w3.org/1999/xlink" x="0px" y="0px"
	 viewBox="0 0 460 460" style="enable-background:new 0 0 460 460;" xml:space="preserve">
<g id="XMLID_968_">
	<path id="XMLID_969_" style="fill:#3D9AE2;" d="M370,380c38.6,0,70-31.4,70-70v-40c0-38.6-31.4-70-70-70H230v220h111.667L345,380
		H370z M356.67,240H370c16.54,0,30,13.46,30,30v40c0,16.54-13.46,30-30,30h-21.67L356.67,240z"/>
	<polygon id="XMLID_972_" style="fill:#78B9EB;" points="230,200 100,200 118.333,420 230,420 	"/>
	<path id="XMLID_973_" style="fill:#FFF5CC;" d="M167.508,159.574h40c0-16.314,2.743-23.616,6.215-32.861
		c4.11-10.943,8.77-23.347,8.77-46.926s-4.659-35.982-8.77-46.926c-3.472-9.245-6.215-16.547-6.215-32.861h-40
		c0,23.579,4.659,35.982,8.77,46.926c3.472,9.245,6.215,16.547,6.215,32.861s-2.743,23.616-6.215,32.861
		C172.167,123.592,167.508,135.995,167.508,159.574z"/>
	<path id="XMLID_974_" style="fill:#FFEB99;" d="M237.508,159.574h40c0-16.314,2.743-23.616,6.215-32.861
		c4.11-10.943,8.77-23.347,8.77-46.926s-4.659-35.982-8.77-46.926c-3.472-9.245-6.215-16.547-6.215-32.861h-40
		c0,23.579,4.659,35.982,8.77,46.926c3.472,9.245,6.215,16.547,6.215,32.861s-2.743,23.616-6.215,32.861
		C242.167,123.592,237.508,135.995,237.508,159.574z"/>
	<rect id="XMLID_975_" x="20" y="420" style="fill:#D1E7F8;" width="210" height="40"/>
	<rect id="XMLID_976_" x="230" y="420" style="fill:#B3D8F4;" width="210" height="40"/>
</g>
<g>
</g>
<g>
</g>
<g>
</g>
<g>
</g>
<g>
</g>
<g>
</g>
<g>
</g>
<g>
</g>
<g>
</g>
<g>
</g>
<g>
</g>
<g>
</g>
<g>
</g>
<g>
</g>
<g>
</g>
</svg>
